HIERARCHY
ROOT root
{
  OFFSET 0.000000 0.000000 0.000000
  CHANNELS 6 Xposition Yposition Zposition Zrotation Yrotation Xrotation
  JOINT lhipjoint
  {
    OFFSET 0.000000 0.000000 0.000000
    CHANNELS 3 Zrotation Yrotation Xrotation
    JOINT lfemur
    {
      OFFSET 0.101782 -0.086417 0.056216
      CHANNELS 3 Zrotation Yrotation Xrotation
      JOINT ltibia
      {
        OFFSET 0.127100 -0.349205 0.000000
        CHANNELS 3 Zrotation Yrotation Xrotation
        JOINT lfoot
        {
          OFFSET 0.127904 -0.351413 0.000000
          CHANNELS 3 Zrotation Yrotation Xrotation
          JOINT ltoes
          {
            OFFSET 0.013378 -0.036756 0.121834
            CHANNELS 3 Zrotation Yrotation Xrotation
            End Site
            {
              OFFSET 0.000000 -0.000000 0.063753
            }
          }
        }
      }
    }
  }
  JOINT rhipjoint
  {
    OFFSET 0.000000 0.000000 0.000000
    CHANNELS 3 Zrotation Yrotation Xrotation
    JOINT rfemur
    {
      OFFSET -0.109489 -0.086417 0.056216
      CHANNELS 3 Zrotation Yrotation Xrotation
      JOINT rtibia
      {
        OFFSET -0.128713 -0.353638 0.000000
        CHANNELS 3 Zrotation Yrotation Xrotation
        JOINT rfoot
        {
          OFFSET -0.127276 -0.349689 0.000000
          CHANNELS 3 Zrotation Yrotation Xrotation
          JOINT rtoes
          {
            OFFSET -0.016016 -0.044004 0.125948
            CHANNELS 3 Zrotation Yrotation Xrotation
            End Site
            {
              OFFSET -0.000000 -0.000000 0.066547
            }
          }
        }
      }
    }
  }
  JOINT lowerback
  {
    OFFSET 0.000000 0.000000 0.000000
    CHANNELS 3 Zrotation Yrotation Xrotation
    JOINT upperback
    {
      OFFSET -0.000050 0.119713 -0.001584
      CHANNELS 3 Zrotation Yrotation Xrotation
      JOINT thorax
      {
        OFFSET -0.000162 0.118345 0.007323
        CHANNELS 3 Zrotation Yrotation Xrotation
        JOINT lowerneck
        {
          OFFSET -0.000004 0.118618 0.007924
          CHANNELS 3 Zrotation Yrotation Xrotation
          JOINT upperneck
          {
            OFFSET 0.004136 0.103590 0.004115
            CHANNELS 3 Zrotation Yrotation Xrotation
            JOINT head
            {
              OFFSET -0.003772 0.098763 -0.027963
              CHANNELS 3 Zrotation Yrotation Xrotation
              End Site
              {
                OFFSET -0.001918 0.104514 -0.009919
              }
            }
          }
        }
        JOINT lclavicle
        {
          OFFSET -0.000004 0.118618 0.007924
          CHANNELS 3 Zrotation Yrotation Xrotation
          JOINT lhumerus
          {
            OFFSET 0.170526 0.066614 0.022918
            CHANNELS 3 Zrotation Yrotation Xrotation
            JOINT lradius
            {
              OFFSET 0.258819 -0.000000 -0.000000
              CHANNELS 3 Zrotation Yrotation Xrotation
              JOINT lwrist
              {
                OFFSET 0.151799 -0.000000 -0.000000
                CHANNELS 3 Zrotation Yrotation Xrotation
                End Site
                {
                  OFFSET 0.075900 -0.000000 -0.000000
                }
              }
            }
          }
        }
        JOINT rclavicle
        {
          OFFSET -0.000004 0.118618 0.007924
          CHANNELS 3 Zrotation Yrotation Xrotation
          JOINT rhumerus
          {
            OFFSET -0.166553 0.067080 0.017740
            CHANNELS 3 Zrotation Yrotation Xrotation
            JOINT rradius
            {
              OFFSET -0.252561 -0.000000 -0.000000
              CHANNELS 3 Zrotation Yrotation Xrotation
              JOINT rwrist
              {
                OFFSET -0.165888 -0.000000 -0.000000
                CHANNELS 3 Zrotation Yrotation Xrotation
                End Site
                {
                  OFFSET -0.082944 -0.000000 -0.000000
                }
              }
            }
          }
        }
      }
    }
  }
}
MOTION
Frames: 14
Frame Time: 0.04166667
0.00000 0.88998 0.00000 -0.76137 -10.15870 13.65080 0.00000 -0.00000 0.00000 -19.51126 -10.93263 -9.32696 1.04025 6.48661 18.20303 0.57644 12.84438 -24.14671 0.01933 0.89757 2.46702 0.00000 -0.00000 0.00000 12.03966 4.67929 -32.52495 -6.77154 -15.13646 48.00490 -0.64047 4.59678 -14.25957 -0.43274 4.22149 -11.70064 -1.63178 0.82152 -1.87564 -0.65098 1.04183 -5.88750 0.21308 0.57343 -5.04671 10.62440 3.23024 -10.52850 -6.84657 4.31329 32.31860 -3.92907 2.32351 12.90530 0.00000 -0.00000 0.00000 -73.57240 8.57875 60.78569 131.71978 -52.27789 -95.19280 -0.00000 0.00000 -11.02340 0.00000 -0.00000 0.00000 83.53434 16.28849 49.75474 -76.68886 59.31979 -48.49855 0.00000 -0.00000 -44.24230
0.00000 0.89173 0.00000 -0.30502 -9.95073 13.70830 0.00000 -0.00000 0.00000 -19.55974 -10.66597 -6.95156 0.67129 5.23937 14.59257 0.35496 13.41855 -22.79486 0.01093 0.67492 1.85474 0.00000 -0.00000 0.00000 9.21098 5.32117 -35.11277 -6.42534 -14.82823 46.66579 -0.51044 1.77462 -13.00041 -0.23298 3.10660 -8.57566 -1.68307 0.82454 -1.74217 -0.96424 1.02708 -6.01154 -0.08583 0.56141 -5.24878 10.18770 2.71671 -10.48070 -6.16898 3.46232 33.02250 -3.72761 1.98759 13.07520 -0.00000 0.00000 0.00000 -73.42201 2.54858 63.37441 136.02992 -50.25383 -98.55610 -0.00000 0.00000 -8.35810 -0.00000 0.00000 0.00000 85.65059 24.54009 55.59784 -85.85682 59.93504 -56.41269 0.00000 -0.00000 -41.84800
0.00000 0.89335 0.00000 -0.40133 -9.21946 14.16320 0.00000 -0.00000 0.00000 -18.71857 -10.95050 -4.79991 0.39578 4.03937 11.18745 0.12688 14.32244 -21.68927 0.00417 0.41706 1.14597 0.00000 -0.00000 0.00000 6.33509 7.48511 -35.12281 -4.62741 -12.95150 39.18720 -0.26825 -4.32795 -12.35040 -0.06280 1.61693 -4.44813 -1.13958 0.86425 -1.68066 -0.99934 1.08641 -6.04285 -0.42911 0.56466 -5.30500 9.63339 2.14418 -10.59010 -5.71199 2.58934 32.89150 -3.56597 1.58701 12.93050 -0.00000 0.00000 0.00000 -73.78890 -1.83094 66.10462 139.24354 -48.51174 -100.99603 -0.00000 0.00000 -7.03639 -0.00000 0.00000 0.00000 86.74822 31.62647 63.24785 -94.69411 59.91657 -64.06408 0.00000 -0.00000 -39.94170
0.00000 0.89481 0.00000 -0.45404 -8.10030 14.86150 0.00000 -0.00000 0.00000 -17.57467 -10.79590 -1.69564 0.09017 1.93672 5.33081 -0.24520 15.43764 -19.17271 0.00000 0.01334 0.03664 0.00000 -0.00000 0.00000 2.81914 10.81961 -34.09635 -2.85164 -10.45093 30.44968 0.28894 -10.77611 -9.43220 -0.01461 0.78036 -2.14464 -0.90806 1.04352 -1.36552 -0.91744 1.33024 -6.16465 -0.48998 0.67855 -5.61038 8.73669 1.29673 -10.89070 -5.16167 1.35478 32.31760 -3.34218 0.98838 12.61340 -0.00000 0.00000 0.00000 -74.50523 -4.16734 69.40753 141.98925 -46.84617 -103.02656 -0.00000 0.00000 -6.44277 -0.00000 0.00000 0.00000 85.99917 37.13213 71.04058 -102.33462 59.41724 -70.66119 0.00000 -0.00000 -35.90540
0.00000 0.89607 0.00000 -0.24526 -6.33524 15.64400 0.00000 -0.00000 0.00000 -16.17763 -11.18530 1.08155 0.00000 -0.00000 -0.00000 -0.53841 16.35779 -16.84339 0.00825 -0.58652 -1.61172 0.00000 -0.00000 0.00000 -1.64305 15.44941 -32.63848 -1.73481 -8.29038 23.59959 0.85770 -16.36497 -3.19061 -0.00163 0.26109 -0.71736 -0.91114 1.20414 -1.20559 -0.99778 1.54392 -6.11210 -0.58229 0.78435 -5.64401 7.63213 0.21924 -11.25400 -4.17259 -0.28914 31.34670 -2.95686 0.23010 12.14940 -0.00000 0.00000 0.00000 -74.92937 -4.66658 72.18304 144.37664 -45.25215 -104.74561 -0.00000 0.00000 -4.27328 -0.00000 0.00000 0.00000 84.07063 40.83602 77.84625 -107.18021 58.85482 -74.82128 0.00000 -0.00000 -29.76420
0.00000 0.89459 0.00000 0.14361 -4.03162 16.41170 0.00000 -0.00000 0.00000 -14.53099 -13.01651 1.33904 0.00000 -0.00000 0.00000 -0.51295 16.40985 -17.33431 0.04385 -1.35145 -3.71638 0.00000 -0.00000 0.00000 -4.89218 18.45187 -32.02960 -1.36184 -7.38643 20.86536 1.05570 -19.20035 0.48733 -0.00267 0.33397 -0.91761 -0.94585 1.36239 -1.14117 -1.31300 1.74890 -5.78951 -0.89199 0.88123 -5.33077 6.51507 -0.99210 -11.68180 -2.79861 -2.20423 29.98290 -2.45828 -0.61328 11.59300 0.00000 0.00000 0.00000 -74.64450 -3.94881 73.78771 146.21183 -43.92716 -106.03410 -0.00000 0.00000 -2.25712 0.00000 0.00000 0.00000 81.57281 41.73111 82.74189 -108.01644 58.73728 -75.53654 0.00000 -0.00000 -22.47060
0.00000 0.88969 0.00000 0.70011 -1.32800 17.25740 0.00000 -0.00000 0.00000 -12.51348 -15.22669 1.52883 0.00000 0.00000 0.00000 -0.49875 16.54560 -17.81018 0.12745 -2.30130 -6.33910 0.00000 -0.00000 0.00000 -4.28168 15.66846 -33.40310 -1.56105 -7.88474 22.36453 0.60727 -15.42757 2.00797 -0.19587 2.84998 -7.86135 -1.32999 1.57123 -0.63361 -1.59440 2.00525 -5.61402 -0.99054 1.02109 -5.43802 5.00747 -2.33552 -11.97770 -1.13137 -4.23277 28.54230 -1.81186 -1.51992 11.06890 0.00000 0.00000 0.00000 -74.31106 -1.75293 73.95790 146.49135 -43.71737 -106.22765 -0.00000 0.00000 -2.35648 0.00000 0.00000 0.00000 78.87747 39.05977 85.36490 -103.56214 59.29347 -71.71729 0.00000 -0.00000 -16.69490
0.00000 0.88168 0.00000 1.36790 1.51459 18.08130 0.00000 -0.00000 0.00000 -10.18899 -17.50084 1.75320 0.00000 0.00000 0.00000 -0.48459 16.75773 -18.41782 0.25903 -3.27444 -9.04376 0.00000 -0.00000 0.00000 -1.12483 10.41013 -36.16036 -2.37379 -9.60472 27.70595 0.24282 -8.74398 -4.16455 -0.52390 4.63864 -12.88071 -2.01827 1.74368 -0.19504 -1.69796 2.21375 -5.20504 -0.72754 1.15392 -5.28059 3.14134 -3.61448 -12.22590 0.60400 -6.03138 26.71400 -1.06671 -2.36495 10.49870 0.00000 -0.00000 0.00000 -73.93795 1.19572 72.39309 144.97551 -44.82961 -105.16938 -0.00000 0.00000 -4.00795 0.00000 -0.00000 0.00000 76.55947 34.03998 86.03010 -94.05372 59.93781 -63.50989 0.00000 -0.00000 -14.44940
0.00000 0.87417 0.00000 1.65111 4.32436 19.18940 0.00000 -0.00000 0.00000 -7.15609 -19.64252 1.37838 0.00000 0.00000 0.00000 -0.50496 17.31068 -19.20061 0.33983 -3.74608 -10.36339 0.00000 -0.00000 0.00000 1.45116 8.96437 -38.95714 -3.41631 -11.34028 33.43628 -0.02447 -7.45980 -11.16209 -0.21121 2.95884 -8.16419 -1.87321 1.86073 0.47327 -1.78258 2.36452 -4.67886 -0.91297 1.21867 -5.09933 1.59278 -4.72097 -12.94310 2.18243 -7.56787 24.58350 -0.43223 -3.08197 9.97841 0.00000 -0.00000 0.00000 -73.49258 4.85347 69.65434 141.76420 -46.98924 -102.86219 -0.00000 0.00000 -3.82887 0.00000 -0.00000 0.00000 75.37730 27.45421 83.97570 -78.72541 59.51419 -50.25185 0.00000 -0.00000 -10.85190
0.00000 0.86728 0.00000 1.99631 7.14280 20.77630 0.00000 -0.00000 0.00000 -4.12780 -21.86489 0.12323 0.00000 0.00000 0.00000 -0.68616 18.93577 -20.07971 0.34112 -3.75308 -10.38302 0.00000 -0.00000 0.00000 3.57551 7.58281 -42.68438 -4.61715 -12.93923 39.14139 -0.33873 -6.98567 -15.72324 -0.12140 2.24618 -6.18649 -1.02024 1.76501 1.30550 -1.96966 2.24804 -4.19523 -1.59359 1.12044 -5.02469 0.82039 -5.57972 -13.75190 3.49114 -8.77118 21.78340 0.00801 -3.63131 9.25203 0.00000 0.00000 0.00000 -73.20077 8.87305 67.30156 138.55808 -48.90135 -100.48101 -0.00000 0.00000 -3.09964 0.00000 0.00000 0.00000 74.77957 21.03152 78.87572 -59.33059 56.12890 -33.78470 0.00000 -0.00000 -5.27854
0.00000 0.86076 0.00000 2.67743 9.69184 22.48800 0.00000 -0.00000 0.00000 -1.50236 -23.90022 -1.52587 0.00000 -0.00000 0.00000 -0.79125 20.08871 -21.14294 0.31393 -3.60186 -9.95916 0.00000 -0.00000 0.00000 5.00812 5.35992 -47.48643 -6.11911 -14.54278 45.45789 -0.71483 -4.97110 -18.54084 -0.09559 1.99387 -5.48873 -0.17183 1.48426 2.29243 -1.95509 1.89951 -3.75991 -2.05504 0.91313 -5.11075 0.34181 -6.14660 -14.07930 4.46900 -9.44727 18.36230 0.36650 -3.98926 8.23124 -0.00000 0.00000 0.00000 -74.19745 12.30388 66.11375 136.48995 -50.01732 -98.90920 -0.00000 0.00000 -4.54459 -0.00000 0.00000 0.00000 74.22708 16.77035 70.65766 -39.93492 48.03129 -18.39083 0.00000 0.00000 0.99675
0.00000 0.85393 0.00000 3.72667 11.32910 23.94520 0.00000 -0.00000 0.00000 0.27900 -25.17738 -3.02653 0.00000 0.00000 0.00000 -0.69451 20.06087 -22.18133 0.25614 -3.25625 -8.99299 0.00000 -0.00000 0.00000 5.78009 3.95923 -51.05121 -7.26547 -15.55142 49.87133 -1.02792 -4.18168 -21.09279 -0.06299 1.61936 -4.45483 -0.35635 1.16556 3.44859 -1.47498 1.47422 -3.30378 -1.44697 0.71699 -5.32363 -0.09088 -6.33930 -14.13280 4.86178 -9.48685 15.29110 0.60105 -4.09940 7.26673 -0.00000 0.00000 0.00000 -76.84381 14.55171 65.23182 135.08985 -50.72439 -97.83082 -0.00000 0.00000 -1.44720 -0.00000 0.00000 0.00000 74.60380 17.02115 55.83487 -21.11691 31.96456 -6.11171 0.00000 0.00000 15.93590
0.00000 0.84785 0.00000 4.48251 12.19740 25.17030 0.00000 -0.00000 0.00000 1.58268 -25.67969 -4.36173 0.00000 -0.00000 -0.00000 -0.71643 20.21394 -22.23531 0.17767 -2.71512 -7.48661 0.00000 -0.00000 0.00000 6.22356 3.60793 -53.91324 -8.23779 -16.29139 53.41470 -1.25678 -4.11767 -23.02355 -0.04458 1.36265 -3.74722 -0.40141 1.16494 4.02222 -0.98256 1.49060 -2.84190 -0.91857 0.73647 -5.18086 -0.06768 -6.38893 -14.27970 4.69017 -9.40066 13.28800 0.57992 -4.13306 6.62975 -0.00000 -0.00000 0.00000 -79.22885 14.25920 66.11972 134.95617 -50.78994 -97.72728 -0.00000 0.00000 -2.51510 -0.00000 -0.00000 0.00000 75.89451 22.67334 4.62326 -7.46010 12.67395 -0.82963 0.00000 0.00000 64.20570
0.00000 0.84244 0.00000 5.33943 12.58520 26.14110 0.00000 -0.00000 0.00000 2.22538 -25.83422 -5.37076 0.00000 0.00000 0.00000 -0.64849 19.77459 -22.14111 0.17135 -2.66662 -7.35192 0.00000 -0.00000 0.00000 6.00257 3.38669 -56.49623 -9.22122 -16.94798 56.85205 -1.43126 -3.71808 -24.20481 -0.04378 1.35039 -3.71346 -0.41179 1.20526 4.39550 -0.81100 1.54964 -2.55010 -0.74433 0.76901 -5.09285 0.08765 -6.25514 -13.99870 4.79909 -9.16281 11.66810 0.64987 -4.05725 6.05736 -0.00000 0.00000 0.00000 -80.40261 12.22701 67.64387 135.39207 -50.57495 -98.06452 -0.00000 0.00000 -4.08056 -0.00000 0.00000 0.00000 72.38236 23.50517 -24.05278 -5.87005 10.04525 -0.51635 0.00000 0.00000 84.21450
